<svg width="100" height="100" viewBox="0 0 100 100" fill="none" xmlns="http://www.w3.org/2000/svg">
<path fill-rule="evenodd" clip-rule="evenodd" d="M84.1558 5.70703H15.5165C10.1235 5.70703 5.71094 10.1196 5.71094 15.5126V84.1519C5.71094 89.545 10.1235 93.9575 15.5165 93.9575H84.1558C89.5489 93.9575 93.9614 89.545 93.9614 84.1519V15.5126C93.9614 10.1196 89.5489 5.70703 84.1558 5.70703ZM43.5116 70.8653C41.5995 72.7774 38.5107 72.7774 36.5986 70.8653L18.9975 53.2642C17.0854 51.3521 17.0854 48.2634 18.9975 46.3513C20.9096 44.4392 23.9984 44.4392 25.9105 46.3513L40.0306 60.4714L73.7619 26.7401C75.674 24.828 78.7627 24.828 80.6748 26.7401C82.5869 28.6522 82.5869 31.7409 80.6748 33.653L43.5116 70.8653Z" fill="#032B02"/>
</svg>
