<svg width="100" height="100" viewBox="0 0 100 100" fill="none" xmlns="http://www.w3.org/2000/svg">
<path d="M50 92C57.2 92 63.1 86.6 64 79.6H36C36.9 86.6 42.8 92 50 92Z" fill="#032B02"/>
<path d="M24 74H76C80.4 74 83.2 69.3 81.1 65.5L76 56.2V41C76 27.9 67.6 16.8 56 12.8V8C56 4.7 53.3 2 50 2C46.7 2 44 4.7 44 8V12.8C32.4 16.8 24 27.9 24 41V56.2L18.9 65.5C16.8 69.3 19.6 74 24 74Z" fill="#032B02"/>
<path d="M14.5 26.8C12.6 24.9 9.4 24.9 7.5 26.8C5.6 28.7 5.6 31.9 7.5 33.8L15.2 41.5C17.1 43.4 20.3 43.4 22.2 41.5C24.1 39.6 24.1 36.4 22.2 34.5L14.5 26.8Z" fill="#032B02"/>
<path d="M92.5 26.8C90.6 24.9 87.4 24.9 85.5 26.8L77.8 34.5C75.9 36.4 75.9 39.6 77.8 41.5C79.7 43.4 82.9 43.4 84.8 41.5L92.5 33.8C94.4 31.9 94.4 28.7 92.5 26.8Z" fill="#032B02"/>
</svg>
