<svg width="14" height="14" viewBox="0 0 14 14" fill="none" xmlns="http://www.w3.org/2000/svg">
<path fill-rule="evenodd" clip-rule="evenodd" d="M2.02659 0.333328H4.27992C5.21992 0.333328 5.97325 1.1 5.97325 2.04066V4.31333C5.97325 5.25999 5.21992 6.01999 4.27992 6.01999H2.02659C1.09325 6.01999 0.333252 5.25999 0.333252 4.31333V2.04066C0.333252 1.1 1.09325 0.333328 2.02659 0.333328ZM2.02659 7.97979H4.27992C5.21992 7.97979 5.97325 8.74046 5.97325 9.68713V11.9598C5.97325 12.8998 5.21992 13.6665 4.27992 13.6665H2.02659C1.09325 13.6665 0.333252 12.8998 0.333252 11.9598V9.68713C0.333252 8.74046 1.09325 7.97979 2.02659 7.97979ZM11.9733 0.333328H9.71999C8.77999 0.333328 8.02665 1.1 8.02665 2.04066V4.31333C8.02665 5.25999 8.77999 6.01999 9.71999 6.01999H11.9733C12.9067 6.01999 13.6667 5.25999 13.6667 4.31333V2.04066C13.6667 1.1 12.9067 0.333328 11.9733 0.333328ZM9.71999 7.97979H11.9733C12.9067 7.97979 13.6667 8.74046 13.6667 9.68713V11.9598C13.6667 12.8998 12.9067 13.6665 11.9733 13.6665H9.71999C8.77999 13.6665 8.02665 12.8998 8.02665 11.9598V9.68713C8.02665 8.74046 8.77999 7.97979 9.71999 7.97979Z" fill="#032b02"/>
</svg>
