<svg width="80" height="80" viewBox="0 0 80 80" fill="none" xmlns="http://www.w3.org/2000/svg">
<path fill-rule="evenodd" clip-rule="evenodd" d="M6.66699 35.5664C6.66699 19.6055 19.4681 6.66669 35.2591 6.66669C42.8422 6.66669 50.1148 9.71147 55.4768 15.1312C60.8389 20.551 63.8513 27.9017 63.8513 35.5664C63.8513 51.5273 51.0501 64.4662 35.2591 64.4662C19.4681 64.4662 6.66699 51.5273 6.66699 35.5664ZM63.3781 58.8476L71.8937 65.7214H72.0415C73.7643 67.4627 73.7643 70.286 72.0415 72.0273C70.3187 73.7687 67.5255 73.7687 65.8027 72.0273L58.736 63.9282C58.0679 63.2553 57.6924 62.3412 57.6924 61.3879C57.6924 60.4346 58.0679 59.5205 58.736 58.8476C60.0244 57.5679 62.0897 57.5679 63.3781 58.8476Z" fill="white"/>
<path d="M44.2287 34.144H36.8245V26.6459C36.8245 25.6732 36.0274 24.8774 35.0531 24.8774C34.0789 24.8774 33.2818 25.6732 33.2818 26.6459V34.144H25.7713C24.7971 34.144 24 34.9398 24 35.9124C24 36.885 24.7971 37.6808 25.7713 37.6808H33.2818V45.0905C33.2818 46.0631 34.0789 46.8589 35.0531 46.8589C36.0274 46.8589 36.8245 46.0631 36.8245 45.0905V37.6808H44.2287C45.2029 37.6808 46 36.885 46 35.9124C46 34.9398 45.2206 34.144 44.2287 34.144Z" fill="#4ca95b"/>
</svg>
