<svg width="14" height="15" viewBox="0 0 14 15" fill="none" xmlns="http://www.w3.org/2000/svg">
<mask id="mask0_185_1319" style="mask-type:alpha" maskUnits="userSpaceOnUse" x="0" y="0" width="14" height="14">
<path fill-rule="evenodd" clip-rule="evenodd" d="M0.333496 0.333313H13.318V13.318H0.333496V0.333313Z" fill="white"/>
</mask>
<g mask="url(#mask0_185_1319)">
<path fill-rule="evenodd" clip-rule="evenodd" d="M6.82616 1.33331C3.7975 1.33331 1.3335 3.79665 1.3335 6.82531C1.3335 9.85398 3.7975 12.318 6.82616 12.318C9.85416 12.318 12.3182 9.85398 12.3182 6.82531C12.3182 3.79665 9.85416 1.33331 6.82616 1.33331M6.82616 13.318C3.24616 13.318 0.333496 10.4053 0.333496 6.82531C0.333496 3.24531 3.24616 0.333313 6.82616 0.333313C10.4062 0.333313 13.3182 3.24531 13.3182 6.82531C13.3182 10.4053 10.4062 13.318 6.82616 13.318" fill="#828282"/>
</g>
<mask id="mask1_185_1319" style="mask-type:alpha" maskUnits="userSpaceOnUse" x="10" y="10" width="4" height="5">
<path fill-rule="evenodd" clip-rule="evenodd" d="M10.4937 10.8046H13.843V14.1478H10.4937V10.8046Z" fill="white"/>
</mask>
<g mask="url(#mask1_185_1319)">
<path fill-rule="evenodd" clip-rule="evenodd" d="M13.3432 14.1478C13.2158 14.1478 13.0878 14.0991 12.9898 14.0018L10.6405 11.6591C10.4452 11.4638 10.4445 11.1471 10.6398 10.9518C10.8345 10.7551 11.1512 10.7565 11.3472 10.9505L13.6965 13.2938C13.8918 13.4891 13.8925 13.8051 13.6972 14.0005C13.5998 14.0991 13.4712 14.1478 13.3432 14.1478" fill="#828282"/>
</g>
</svg>
