<svg width="30" height="30" viewBox="0 0 30 30" fill="none" xmlns="http://www.w3.org/2000/svg">
<g clip-path="url(#clip0_824_77)">
<path d="M15 30C23.2843 30 30 23.2843 30 15C30 6.71573 23.2843 0 15 0C6.71573 0 0 6.71573 0 15C0 23.2843 6.71573 30 15 30Z" fill="#29A9EB"/>
<path fill-rule="evenodd" clip-rule="evenodd" d="M6.78977 14.841C11.1626 12.9358 14.0785 11.6798 15.5374 11.073C19.7031 9.34032 20.5687 9.03934 21.1329 9.0294C21.257 9.02722 21.5344 9.05797 21.7141 9.2038C21.8659 9.32693 21.9076 9.49327 21.9276 9.61002C21.9476 9.72676 21.9725 9.99271 21.9527 10.2005C21.7269 12.5724 20.7502 18.3282 20.2533 20.9847C20.043 22.1088 19.629 22.4857 19.2281 22.5226C18.3571 22.6027 17.6956 21.9469 16.8519 21.3939C15.5317 20.5285 14.7859 19.9898 13.5044 19.1453C12.0235 18.1693 12.9835 17.633 13.8275 16.7563C14.0484 16.5269 17.8864 13.036 17.9607 12.7193C17.9699 12.6797 17.9786 12.5321 17.8909 12.4541C17.8032 12.3761 17.6737 12.4028 17.5803 12.424C17.4479 12.4541 15.3389 13.848 11.2532 16.606C10.6546 17.017 10.1123 17.2173 9.62652 17.2068C9.09094 17.1953 8.0607 16.904 7.29483 16.6551C6.35545 16.3497 5.60886 16.1883 5.67387 15.6697C5.70773 15.3996 6.0797 15.1233 6.78977 14.841Z" fill="white"/>
</g>
<defs>
<clipPath id="clip0_824_77">
<rect width="30" height="30" fill="white"/>
</clipPath>
</defs>
</svg>
