<svg width="30" height="30" viewBox="0 0 30 30" fill="none" xmlns="http://www.w3.org/2000/svg">
<g clip-path="url(#clip0_912_230)">
<path d="M0 30L2.58 22.2605C1.27086 20.0586 0.517241 17.489 0.517241 14.7414C0.517241 6.6 7.11724 0 15.2586 0C23.4 0 30 6.6 30 14.7414C30 22.8828 23.4 29.4828 15.2586 29.4828C12.7816 29.4828 10.4488 28.8688 8.4 27.7898L0 30Z" fill="#2CB742"/>
<path d="M24.6637 19.6467C23.983 18.3603 21.4728 16.8893 21.4728 16.8893C20.9049 16.5655 20.2195 16.5293 19.8957 17.1066C19.8957 17.1066 19.0801 18.0847 18.8726 18.2253C17.9251 18.8672 17.0473 18.8424 16.1613 17.9564L14.1021 15.8972L12.043 13.8381C11.157 12.9521 11.1321 12.0743 11.774 11.1267C11.9147 10.9193 12.8928 10.1036 12.8928 10.1036C13.4701 9.77931 13.4339 9.09449 13.1101 8.52656C13.1101 8.52656 11.639 6.01638 10.3526 5.33569C9.8054 5.04604 9.13351 5.14742 8.69592 5.585L7.78661 6.49432C4.90196 9.37897 6.3223 12.6355 9.20695 15.5202L11.8433 18.1566L14.4797 20.7929C17.3644 23.6776 20.6209 25.0979 23.5056 22.2133L24.4149 21.304C24.8525 20.8653 24.9533 20.1935 24.6637 19.6467Z" fill="white"/>
</g>
<defs>
<clipPath id="clip0_912_230">
<rect width="30" height="30" fill="white"/>
</clipPath>
</defs>
</svg>
